Coordinates
version=1
nRows=8
nColumns=36
inDegrees=yes

Units are S.I. units (second, meters, Newtons, ...)
If the header above contains a line with 'inDegrees', this indicates whether rotational values are in degrees (yes) or radians (no).

endheader
time	pelvis_tilt	pelvis_list	pelvis_rotation	pelvis_tx	pelvis_ty	pelvis_tz	hip_flexion_r	hip_adduction_r	hip_rotation_r	knee_angle_r	knee_angle_r_beta	ankle_angle_r	subtalar_angle_r	mtp_angle_r	hip_flexion_l	hip_adduction_l	hip_rotation_l	knee_angle_l	knee_angle_l_beta	ankle_angle_l	subtalar_angle_l	mtp_angle_l	lumbar_extension	lumbar_bending	lumbar_rotation	arm_flex_r	arm_add_r	arm_rot_r	elbow_flex_r	pro_sup_r	arm_flex_l	arm_add_l	arm_rot_l	elbow_flex_l	pro_sup_l
      5.25000000	      6.70427920	     -2.97988301	      2.10869726	      0.35389437	      0.72717191	      0.12965573	     40.22593245	     15.11548514	     -0.87562436	     75.60029673	      1.31947409	     46.72981364	    -20.61358507	     -7.49999987	     47.67116899	     -8.14480258	     -3.93354504	     14.26566686	      0.24898286	    -19.08857401	    -14.78782939	     -7.49999987	    -35.10056140	      1.62497217	      7.20447685	     72.73744349	      7.01001486	     69.32821969	    130.65211773	     93.75126332	     65.51803069	     14.93673446	     72.68158698	    118.76584650	     79.87429726
      5.26666670	      6.19764528	     -2.60516087	      2.07362880	      0.35434257	      0.73241437	      0.12935923	     39.68718093	     14.70309579	     -0.24235576	     74.35101955	      1.29767009	     46.34445214	    -20.59558745	     -7.49999987	     48.07159684	     -7.67263140	     -4.21379251	     14.08241256	      0.24578447	    -18.92128629	    -14.67221559	     -7.49999987	    -34.21649402	      1.26492435	      7.31941891	     72.04503714	      6.90361687	     68.51730585	    130.64744284	     98.28461822	     65.34118649	     15.08719418	     72.62473323	    118.57736904	     81.76504739
      5.28333330	      6.26767794	     -2.44117400	      1.93786710	      0.35448567	      0.73882392	      0.12921224	     38.42830187	     14.45787420	      0.28330104	     72.85974384	      1.27164242	     45.96420928	    -20.44597432	     -7.49999987	     47.69010033	     -7.47640293	     -4.39787763	     13.76934335	      0.24032038	    -19.15318217	    -14.35310624	     -7.49999987	    -33.81316804	      1.21137311	      7.49228212	     71.73447974	      6.92058248	     68.19422719	    130.35582778	     98.27480037	     65.04136214	     15.15101642	     72.59124755	    118.60517252	     81.76242013
      5.30000000	      6.58976994	     -2.46166768	      2.06345931	      0.35394275	      0.74803085	      0.12903068	     36.42287504	     14.30071043	      0.66784119	     70.35254166	      1.22788349	     45.25243573	    -20.49368160	     -7.49999987	     46.86811575	     -7.33282842	     -4.95212992	     13.31974068	      0.23247333	    -18.98485778	    -13.78722043	     -7.49999987	    -33.98556421	      1.42139116	      7.62041369	     71.53516382	      6.94585254	     67.88561425	    129.83601643	     98.17231478	     64.90360086	     15.29450131	     72.59228817	    118.48859469	     81.72207318
      5.31666670	      6.41889529	     -2.51713125	      1.89464360	      0.35373485	      0.74877368	      0.12904004	     35.69291929	     14.22411754	      0.75092753	     68.78904509	      1.20059533	     44.94106416	    -20.30832656	     -7.49999987	     46.65274331	     -7.42609739	     -5.17743116	     13.26636103	      0.23154168	    -18.76173921	    -14.19323453	     -7.49999987	    -33.57190851	      1.36815196	      7.59548870	     71.49917808	      7.13516913	     67.68626676	    129.63414218	     98.65418865	     64.78259663	     15.28883207	     72.52266942	    118.48469900	     82.01966224
      5.33333330	      6.60077046	     -2.92939320	      1.46246395	      0.35296346	      0.75496386	      0.12895542	     34.57451693	     14.61059303	      0.84607584	     67.08236294	      1.17080810	     44.36829862	    -20.16453208	     -7.49999987	     46.13735503	     -7.98331955	     -4.64017132	     13.14544867	      0.22943136	    -18.26799384	    -14.19258914	     -7.49999987	    -32.98312474	      1.47872212	      7.65411637	     71.05332269	      7.32154067	     67.29909211	    129.68465310	     98.58106272	     64.43340451	     15.16831553	     71.79172350	    117.97021385	     81.95501653
      5.35000000	      6.24793501	     -2.99862924	      0.97133143	      0.35323657	      0.76444768	      0.12892334	     34.38564851	     14.47018613	      0.72369082	     65.85549469	      1.14939521	     43.69202302	    -19.78171684	     -7.49999987	     46.13172673	     -8.12852364	     -3.57656980	     13.31048973	      0.23231187	    -17.74610458	    -14.34846843	     -7.49999987	    -32.21862063	      1.50802446	      7.53721679	     70.13467318	      7.41854447	     67.37207846	    129.66677131	     94.65270799	     64.08279940	     14.85387404	     71.50803373	    117.95547719	     79.77950308
      5.36666670	      6.02716370	     -2.99892108	      0.62716560	      0.35297558	      0.76706483	      0.12948492	     34.24861893	     14.31933198	      0.66127917	     65.23302116	      1.13853100	     43.06571742	    -19.48449715	     -7.49999987	     46.18355539	     -8.34887986	     -2.65169183	     13.62434981	      0.23778976	    -16.93589982	    -13.92099285	     -7.49999987	    -31.44094474	      1.50161699	      7.72824043	     69.43238320	      7.29414166	     66.84743460	    129.47769208	     93.96599709	     64.05181612	     14.77984585	     71.07095397	    117.98534819	     79.20367933
